<svg width="12" height="12" viewBox="0 0 12 12" fill="none" xmlns="http://www.w3.org/2000/svg">
<path d="M11.0977 0.343734C11.4655 0.0799255 11.9196 0.534045 11.6558 0.901899L8.16718 5.76644C8.06725 5.90579 8.06725 6.09333 8.16718 6.23267L11.6558 11.0972C11.9196 11.4651 11.4655 11.9192 11.0977 11.6554L6.23311 8.16674C6.09377 8.0668 5.90623 8.0668 5.76689 8.16674L0.902341 11.6554C0.534488 11.9192 0.0803687 11.4651 0.344178 11.0972L3.83282 6.23267C3.93275 6.09333 3.93275 5.90579 3.83282 5.76644L0.344177 0.901899C0.0803683 0.534045 0.534488 0.0799259 0.902342 0.343735L5.76689 3.83238C5.90623 3.93231 6.09377 3.93231 6.23311 3.83238L11.0977 0.343734Z" fill="#DA1B12"/>
</svg>
