<svg width="20" height="21" viewBox="0 0 20 21" fill="none" xmlns="http://www.w3.org/2000/svg">
<g clip-path="url(#clip0_4_650)">
<path d="M10 0.0800781C4.4772 0.0800781 0 4.55728 0 10.0801C0 14.7697 3.2288 18.7049 7.5844 19.7857V13.1361H5.5224V10.0801H7.5844V8.76328C7.5844 5.35968 9.1248 3.78208 12.4664 3.78208C13.1 3.78208 14.1932 3.90648 14.6404 4.03048V6.80048C14.4044 6.77568 13.9944 6.76328 13.4852 6.76328C11.8456 6.76328 11.212 7.38448 11.212 8.99928V10.0801H14.4784L13.9172 13.1361H11.212V20.0069C16.1636 19.4089 20.0004 15.1929 20.0004 10.0801C20 4.55728 15.5228 0.0800781 10 0.0800781Z" fill="#546881"/>
</g>
<defs>
<clipPath id="clip0_4_650">
<rect width="20" height="20" fill="white" transform="translate(0 0.0800781)"/>
</clipPath>
</defs>
</svg>
