<svg width="18" height="18" viewBox="0 0 18 18" fill="none" xmlns="http://www.w3.org/2000/svg">
<path d="M9.74025 17.5C9.52758 17.5 9.34942 17.4282 9.20575 17.2845C9.06225 17.141 8.9905 16.9628 8.9905 16.75C8.9905 16.5372 9.06225 16.359 9.20575 16.2155C9.34942 16.0718 9.52758 16 9.74025 16H15.6923C15.7693 16 15.8398 15.9679 15.9038 15.9038C15.9679 15.8398 16 15.7693 16 15.6923V2.30775C16 2.23075 15.9679 2.16025 15.9038 2.09625C15.8398 2.03208 15.7693 2 15.6923 2H9.74025C9.52758 2 9.34942 1.92817 9.20575 1.7845C9.06225 1.641 8.9905 1.46283 8.9905 1.25C8.9905 1.03717 9.06225 0.859 9.20575 0.7155C9.34942 0.571833 9.52758 0.5 9.74025 0.5H15.6923C16.1974 0.5 16.625 0.675 16.975 1.025C17.325 1.375 17.5 1.80258 17.5 2.30775V15.6923C17.5 16.1974 17.325 16.625 16.975 16.975C16.625 17.325 16.1974 17.5 15.6923 17.5H9.74025ZM9.03075 9.75H1.25C1.03717 9.75 0.859 9.67817 0.7155 9.5345C0.571833 9.391 0.5 9.21283 0.5 9C0.5 8.78717 0.571833 8.609 0.7155 8.4655C0.859 8.32183 1.03717 8.25 1.25 8.25H9.03075L7.10775 6.327C6.96925 6.1885 6.89842 6.01958 6.89525 5.82025C6.89208 5.62092 6.96292 5.44367 7.10775 5.2885C7.25258 5.13333 7.42825 5.05317 7.63475 5.048C7.84108 5.043 8.02183 5.118 8.177 5.273L11.2712 8.36725C11.4519 8.54808 11.5423 8.759 11.5423 9C11.5423 9.241 11.4519 9.45192 11.2712 9.63275L8.177 12.727C8.02833 12.8757 7.85175 12.949 7.64725 12.947C7.44275 12.9452 7.26292 12.8667 7.10775 12.7115C6.96292 12.5563 6.89308 12.3782 6.89825 12.177C6.90325 11.9757 6.97825 11.8026 7.12325 11.6578L9.03075 9.75Z" fill="white"/>
</svg>
