<svg width="16" height="16" viewBox="0 0 16 16" fill="none" xmlns="http://www.w3.org/2000/svg">
<path d="M7.60532 0.39614C7.67889 -0.0505129 8.32111 -0.0505124 8.39468 0.396141L9.36759 6.30274C9.39546 6.47193 9.52807 6.60454 9.69726 6.63241L15.6039 7.60532C16.0505 7.67889 16.0505 8.32111 15.6039 8.39468L9.69726 9.36759C9.52807 9.39546 9.39546 9.52807 9.36759 9.69726L8.39468 15.6039C8.32111 16.0505 7.67889 16.0505 7.60532 15.6039L6.63241 9.69726C6.60454 9.52807 6.47193 9.39546 6.30274 9.36759L0.39614 8.39468C-0.0505129 8.32111 -0.0505124 7.67889 0.396141 7.60532L6.30274 6.63241C6.47193 6.60454 6.60454 6.47193 6.63241 6.30274L7.60532 0.39614Z" fill="#DA1B12"/>
</svg>
