<svg width="20" height="21" viewBox="0 0 20 21" fill="none" xmlns="http://www.w3.org/2000/svg">
<g clip-path="url(#clip0_4_653)">
<path fill-rule="evenodd" clip-rule="evenodd" d="M20 10.0801C20 15.6029 15.5228 20.0801 10 20.0801C4.47715 20.0801 0 15.6029 0 10.0801C0 4.55723 4.47715 0.0800781 10 0.0800781C15.5228 0.0800781 20 4.55723 20 10.0801ZM10.3584 7.46252C9.38571 7.86708 7.44178 8.70441 4.52658 9.97451C4.05319 10.1628 3.80521 10.3469 3.78264 10.527C3.74449 10.8313 4.12559 10.9512 4.64456 11.1143C4.71515 11.1365 4.78829 11.1595 4.86328 11.1839C5.37386 11.3499 6.06069 11.5441 6.41774 11.5518C6.74162 11.5588 7.10311 11.4252 7.5022 11.1512C10.226 9.31258 11.632 8.38325 11.7203 8.36322C11.7825 8.34908 11.8688 8.33131 11.9273 8.38328C11.9858 8.43525 11.98 8.53368 11.9738 8.56008C11.9361 8.72103 10.4401 10.1118 9.66593 10.8316C9.42459 11.0559 9.25339 11.2151 9.2184 11.2514C9.14 11.3329 9.06011 11.4099 8.98332 11.4839C8.50897 11.9412 8.15326 12.2841 9.00301 12.8441C9.41137 13.1132 9.73814 13.3357 10.0641 13.5577C10.4201 13.8001 10.7752 14.042 11.2347 14.3431C11.3517 14.4199 11.4635 14.4996 11.5724 14.5772C11.9867 14.8726 12.359 15.1379 12.8188 15.0956C13.086 15.071 13.3621 14.8198 13.5022 14.0704C13.8335 12.2994 14.4847 8.46212 14.6352 6.88089C14.6484 6.74235 14.6318 6.56505 14.6185 6.48722C14.6051 6.40939 14.5773 6.2985 14.4761 6.21641C14.3563 6.11919 14.1714 6.09869 14.0886 6.10015C13.7125 6.10677 13.1355 6.30743 10.3584 7.46252Z" fill="#546881"/>
</g>
<defs>
<clipPath id="clip0_4_653">
<rect width="20" height="20" fill="white" transform="translate(0 0.0800781)"/>
</clipPath>
</defs>
</svg>
