<svg width="20" height="21" viewBox="0 0 20 21" fill="none" xmlns="http://www.w3.org/2000/svg">
<path d="M19.8008 6.08008C19.8008 6.08008 19.6055 4.70117 19.0039 4.0957C18.2422 3.29883 17.3906 3.29492 17 3.24805C14.2031 3.04492 10.0039 3.04492 10.0039 3.04492H9.99609C9.99609 3.04492 5.79688 3.04492 3 3.24805C2.60938 3.29492 1.75781 3.29883 0.996094 4.0957C0.394531 4.70117 0.203125 6.08008 0.203125 6.08008C0.203125 6.08008 0 7.70117 0 9.31836V10.834C0 12.4512 0.199219 14.0723 0.199219 14.0723C0.199219 14.0723 0.394531 15.4512 0.992187 16.0566C1.75391 16.8535 2.75391 16.8262 3.19922 16.9121C4.80078 17.0645 10 17.1113 10 17.1113C10 17.1113 14.2031 17.1035 17 16.9043C17.3906 16.8574 18.2422 16.8535 19.0039 16.0566C19.6055 15.4512 19.8008 14.0723 19.8008 14.0723C19.8008 14.0723 20 12.4551 20 10.834V9.31836C20 7.70117 19.8008 6.08008 19.8008 6.08008ZM7.93359 12.6738V7.05273L13.3359 9.87305L7.93359 12.6738Z" fill="#546881"/>
</svg>
