<svg width="65" height="65" viewBox="0 0 65 65" fill="none" xmlns="http://www.w3.org/2000/svg">
<g filter="url(#filter0_d_4_549)">
<rect x="4" width="57" height="57" rx="28.5" fill="#E14941" shape-rendering="crispEdges"/>
<rect x="6.5" y="2.5" width="52" height="52" rx="26" stroke="white" stroke-width="5" shape-rendering="crispEdges"/>
<path d="M32.5 25C38.0228 25 42.5 23.6569 42.5 22C42.5 20.3431 38.0228 19 32.5 19C26.9772 19 22.5 20.3431 22.5 22C22.5 23.6569 26.9772 25 32.5 25Z" stroke="white" stroke-width="2" stroke-linecap="round" stroke-linejoin="round"/>
<path d="M25.885 24.25C23.81 24.8 22.5 25.604 22.5 26.5C22.5 28.157 26.977 29.5 32.5 29.5C38.023 29.5 42.5 28.157 42.5 26.5C42.5 25.604 41.1905 24.8 39.115 24.25C37.352 24.7165 35.036 25 32.5 25C29.964 25 27.6485 24.7165 25.885 24.25Z" stroke="white" stroke-width="2" stroke-linecap="round" stroke-linejoin="round"/>
<path d="M25.885 28.75C23.81 29.3 22.5 30.104 22.5 31C22.5 32.657 26.977 34 32.5 34C38.023 34 42.5 32.657 42.5 31C42.5 30.104 41.1905 29.3 39.115 28.75C37.352 29.2165 35.036 29.5 32.5 29.5C29.964 29.5 27.6485 29.2165 25.885 28.75Z" stroke="white" stroke-width="2" stroke-linecap="round" stroke-linejoin="round"/>
<path d="M25.885 33.25C23.81 33.8 22.5 34.604 22.5 35.5C22.5 37.157 26.977 38.5 32.5 38.5C38.023 38.5 42.5 37.157 42.5 35.5C42.5 34.604 41.1905 33.8 39.115 33.25C37.352 33.717 35.036 34 32.5 34C29.964 34 27.6485 33.717 25.885 33.25Z" stroke="white" stroke-width="2" stroke-linecap="round" stroke-linejoin="round"/>
</g>
<defs>
<filter id="filter0_d_4_549" x="0" y="0" width="65" height="65" filterUnits="userSpaceOnUse" color-interpolation-filters="sRGB">
<feFlood flood-opacity="0" result="BackgroundImageFix"/>
<feColorMatrix in="SourceAlpha" type="matrix" values="0 0 0 0 0 0 0 0 0 0 0 0 0 0 0 0 0 0 127 0" result="hardAlpha"/>
<feOffset dy="4"/>
<feGaussianBlur stdDeviation="2"/>
<feComposite in2="hardAlpha" operator="out"/>
<feColorMatrix type="matrix" values="0 0 0 0 0 0 0 0 0 0 0 0 0 0 0 0 0 0 0.25 0"/>
<feBlend mode="normal" in2="BackgroundImageFix" result="effect1_dropShadow_4_549"/>
<feBlend mode="normal" in="SourceGraphic" in2="effect1_dropShadow_4_549" result="shape"/>
</filter>
</defs>
</svg>
