<svg width="65" height="65" viewBox="0 0 65 65" fill="none" xmlns="http://www.w3.org/2000/svg">
<g filter="url(#filter0_d_4_518)">
<rect x="4" width="57" height="57" rx="28.5" fill="#909DAD" shape-rendering="crispEdges"/>
<rect x="6.5" y="2.5" width="52" height="52" rx="26" stroke="white" stroke-width="5" shape-rendering="crispEdges"/>
<path d="M38.5 32.5C39.0304 32.5 39.5391 32.7107 39.9142 33.0858C40.2893 33.4609 40.5 33.9696 40.5 34.5C40.5 35.0304 40.2893 35.5391 39.9142 35.9142C39.5391 36.2893 39.0304 36.5 38.5 36.5C37.9696 36.5 37.4609 36.2893 37.0858 35.9142C36.7107 35.5391 36.5 35.0304 36.5 34.5M38.5 32.5C37.9696 32.5 37.4609 32.7107 37.0858 33.0858C36.7107 33.4609 36.5 33.9696 36.5 34.5M38.5 32.5V24.5M36.5 34.5H28.5M28.5 34.5C28.5 33.9696 28.2893 33.4609 27.9142 33.0858C27.5391 32.7107 27.0304 32.5 26.5 32.5M28.5 34.5C28.5 35.0304 28.2893 35.5391 27.9142 35.9142C27.5391 36.2893 27.0304 36.5 26.5 36.5C25.9696 36.5 25.4609 36.2893 25.0858 35.9142C24.7107 35.5391 24.5 35.0304 24.5 34.5C24.5 33.9696 24.7107 33.4609 25.0858 33.0858C25.4609 32.7107 25.9696 32.5 26.5 32.5M26.5 32.5V24.5M28.5 22.5C28.5 21.9696 28.2893 21.4609 27.9142 21.0858C27.5391 20.7107 27.0304 20.5 26.5 20.5C25.9696 20.5 25.4609 20.7107 25.0858 21.0858C24.7107 21.4609 24.5 21.9696 24.5 22.5C24.5 23.0304 24.7107 23.5391 25.0858 23.9142C25.4609 24.2893 25.9696 24.5 26.5 24.5M28.5 22.5C28.5 23.0304 28.2893 23.5391 27.9142 23.9142C27.5391 24.2893 27.0304 24.5 26.5 24.5M28.5 22.5H36.5M36.5 22.5C36.5 21.9696 36.7107 21.4609 37.0858 21.0858C37.4609 20.7107 37.9696 20.5 38.5 20.5C39.0304 20.5 39.5391 20.7107 39.9142 21.0858C40.2893 21.4609 40.5 21.9696 40.5 22.5C40.5 23.0304 40.2893 23.5391 39.9142 23.9142C39.5391 24.2893 39.0304 24.5 38.5 24.5M36.5 22.5C36.5 23.0304 36.7107 23.5391 37.0858 23.9142C37.4609 24.2893 37.9696 24.5 38.5 24.5M28 24L31 27M34.5 28.5C34.5 27.9696 34.2893 27.4609 33.9142 27.0858C33.5391 26.7107 33.0304 26.5 32.5 26.5C31.9696 26.5 31.4609 26.7107 31.0858 27.0858C30.7107 27.4609 30.5 27.9696 30.5 28.5C30.5 29.0304 30.7107 29.5391 31.0858 29.9142C31.4609 30.2893 31.9696 30.5 32.5 30.5C33.0304 30.5 33.5391 30.2893 33.9142 29.9142C34.2893 29.5391 34.5 29.0304 34.5 28.5Z" stroke="white" stroke-width="2" stroke-linecap="round" stroke-linejoin="round"/>
</g>
<defs>
<filter id="filter0_d_4_518" x="0" y="0" width="65" height="65" filterUnits="userSpaceOnUse" color-interpolation-filters="sRGB">
<feFlood flood-opacity="0" result="BackgroundImageFix"/>
<feColorMatrix in="SourceAlpha" type="matrix" values="0 0 0 0 0 0 0 0 0 0 0 0 0 0 0 0 0 0 127 0" result="hardAlpha"/>
<feOffset dy="4"/>
<feGaussianBlur stdDeviation="2"/>
<feComposite in2="hardAlpha" operator="out"/>
<feColorMatrix type="matrix" values="0 0 0 0 0 0 0 0 0 0 0 0 0 0 0 0 0 0 0.25 0"/>
<feBlend mode="normal" in2="BackgroundImageFix" result="effect1_dropShadow_4_518"/>
<feBlend mode="normal" in="SourceGraphic" in2="effect1_dropShadow_4_518" result="shape"/>
</filter>
</defs>
</svg>
