<svg width="65" height="65" viewBox="0 0 65 65" fill="none" xmlns="http://www.w3.org/2000/svg">
<g filter="url(#filter0_d_4_551)">
<rect x="4" width="57" height="57" rx="28.5" fill="#E14941" shape-rendering="crispEdges"/>
<rect x="6.5" y="2.5" width="52" height="52" rx="26" stroke="white" stroke-width="5" shape-rendering="crispEdges"/>
<path d="M26.7 21.5H38.3V19.5H26.7V21.5ZM38.3 35.5H26.7V37.5H38.3V35.5ZM40.5 23.7V26.27H42.5V23.7H40.5ZM41.27 25.5H40.5V27.5H41.27V25.5ZM40.5 30.73V33.3H42.5V30.73H40.5ZM40.5 31.5H41.27V29.5H40.5V31.5ZM24.5 25.5H23.73V27.5H24.5V25.5ZM24.5 26.27V23.7H22.5V26.27H24.5ZM24.5 33.3V30.73H22.5V33.3H24.5ZM23.73 31.5H24.5V29.5H23.73V31.5ZM24.5 31.5C25.2957 31.5 26.0587 31.1839 26.6213 30.6213C27.1839 30.0587 27.5 29.2957 27.5 28.5H25.5C25.5 28.7652 25.3946 29.0196 25.2071 29.2071C25.0196 29.3946 24.7652 29.5 24.5 29.5V31.5ZM24.5 30.73C24.5 30.9342 24.4189 31.1301 24.2745 31.2745C24.1301 31.4189 23.9342 31.5 23.73 31.5V29.5C23.052 29.5 22.5 30.051 22.5 30.73H24.5ZM23.73 25.5C23.9342 25.5 24.1301 25.5811 24.2745 25.7255C24.4189 25.8699 24.5 26.0658 24.5 26.27H22.5C22.5 26.949 23.051 27.5 23.73 27.5V25.5ZM24.5 27.5C24.7652 27.5 25.0196 27.6054 25.2071 27.7929C25.3946 27.9804 25.5 28.2348 25.5 28.5H27.5C27.5 27.7044 27.1839 26.9413 26.6213 26.3787C26.0587 25.8161 25.2957 25.5 24.5 25.5V27.5ZM37.5 28.5C37.5 29.2957 37.8161 30.0587 38.3787 30.6213C38.9413 31.1839 39.7044 31.5 40.5 31.5V29.5C40.2348 29.5 39.9804 29.3946 39.7929 29.2071C39.6054 29.0196 39.5 28.7652 39.5 28.5H37.5ZM42.5 30.73C42.5 30.4038 42.3704 30.0909 42.1397 29.8603C41.9091 29.6296 41.5962 29.5 41.27 29.5V31.5C41.0658 31.5 40.8699 31.4189 40.7255 31.2745C40.5811 31.1301 40.5 30.9342 40.5 30.73H42.5ZM40.5 26.27C40.5 26.0658 40.5811 25.8699 40.7255 25.7255C40.8699 25.5811 41.0658 25.5 41.27 25.5V27.5C41.4315 27.5 41.5915 27.4682 41.7407 27.4064C41.8899 27.3446 42.0255 27.254 42.1397 27.1397C42.254 27.0255 42.3446 26.8899 42.4064 26.7407C42.4682 26.5915 42.5 26.4315 42.5 26.27H40.5ZM40.5 25.5C39.7044 25.5 38.9413 25.8161 38.3787 26.3787C37.8161 26.9413 37.5 27.7044 37.5 28.5H39.5C39.5 28.2348 39.6054 27.9804 39.7929 27.7929C39.9804 27.6054 40.2348 27.5 40.5 27.5V25.5ZM26.7 35.5C26.123 35.5 25.751 35.5 25.468 35.476C25.196 35.454 25.095 35.416 25.046 35.391L24.138 37.173C24.516 37.366 24.91 37.437 25.305 37.469C25.689 37.501 26.156 37.5 26.7 37.5V35.5ZM22.5 33.3C22.5 33.844 22.5 34.311 22.53 34.695C22.563 35.09 22.634 35.484 22.827 35.862L24.609 34.954C24.584 34.904 24.546 34.804 24.524 34.532C24.5 34.25 24.5 33.877 24.5 33.3H22.5ZM25.046 35.391C24.8578 35.2951 24.7049 35.1422 24.609 34.954L22.827 35.862C23.1146 36.4265 23.5735 36.8854 24.138 37.173L25.046 35.391ZM38.3 37.5C38.844 37.5 39.311 37.5 39.695 37.47C40.09 37.437 40.484 37.366 40.862 37.173L39.954 35.391C39.904 35.416 39.804 35.454 39.532 35.476C39.25 35.5 38.877 35.5 38.3 35.5V37.5ZM40.5 33.3C40.5 33.877 40.5 34.249 40.476 34.532C40.454 34.804 40.416 34.904 40.391 34.954L42.173 35.862C42.366 35.484 42.437 35.09 42.469 34.695C42.501 34.311 42.5 33.844 42.5 33.3H40.5ZM40.862 37.173C41.4265 36.8854 41.8854 36.4265 42.173 35.862L40.391 34.954C40.2951 35.1422 40.1422 35.2951 39.954 35.391L40.862 37.173ZM38.3 21.5C38.877 21.5 39.249 21.5 39.532 21.524C39.804 21.546 39.904 21.584 39.954 21.609L40.862 19.827C40.484 19.634 40.09 19.563 39.695 19.531C39.311 19.499 38.844 19.5 38.3 19.5V21.5ZM42.5 23.7C42.5 23.156 42.5 22.689 42.47 22.305C42.437 21.91 42.366 21.516 42.173 21.138L40.391 22.046C40.416 22.096 40.454 22.196 40.476 22.468C40.5 22.75 40.5 23.123 40.5 23.7H42.5ZM39.954 21.609C40.1422 21.7049 40.2951 21.8578 40.391 22.046L42.173 21.138C41.8854 20.5735 41.4265 20.1146 40.862 19.827L39.954 21.609ZM26.7 19.5C26.156 19.5 25.689 19.5 25.305 19.53C24.91 19.563 24.516 19.634 24.138 19.827L25.046 21.609C25.096 21.584 25.196 21.546 25.468 21.524C25.75 21.5 26.123 21.5 26.7 21.5V19.5ZM24.5 23.7C24.5 23.123 24.5 22.751 24.524 22.468C24.546 22.196 24.584 22.095 24.609 22.046L22.827 21.138C22.634 21.516 22.563 21.91 22.531 22.305C22.499 22.689 22.5 23.156 22.5 23.7H24.5ZM24.138 19.827C23.5735 20.1146 23.1146 20.5735 22.827 21.138L24.609 22.046C24.7049 21.8578 24.8578 21.7049 25.046 21.609L24.138 19.827Z" fill="white"/>
<path d="M33.5 25.5V26.5M33.5 20.5V21.5M33.5 30.5V31.5M33.5 35.5V36.5" stroke="white" stroke-width="2" stroke-linecap="round"/>
</g>
<defs>
<filter id="filter0_d_4_551" x="0" y="0" width="65" height="65" filterUnits="userSpaceOnUse" color-interpolation-filters="sRGB">
<feFlood flood-opacity="0" result="BackgroundImageFix"/>
<feColorMatrix in="SourceAlpha" type="matrix" values="0 0 0 0 0 0 0 0 0 0 0 0 0 0 0 0 0 0 127 0" result="hardAlpha"/>
<feOffset dy="4"/>
<feGaussianBlur stdDeviation="2"/>
<feComposite in2="hardAlpha" operator="out"/>
<feColorMatrix type="matrix" values="0 0 0 0 0 0 0 0 0 0 0 0 0 0 0 0 0 0 0.25 0"/>
<feBlend mode="normal" in2="BackgroundImageFix" result="effect1_dropShadow_4_551"/>
<feBlend mode="normal" in="SourceGraphic" in2="effect1_dropShadow_4_551" result="shape"/>
</filter>
</defs>
</svg>
