<svg width="65" height="65" viewBox="0 0 65 65" fill="none" xmlns="http://www.w3.org/2000/svg">
<g filter="url(#filter0_d_4_552)">
<rect x="4" width="57" height="57" rx="28.5" fill="#E14941" shape-rendering="crispEdges"/>
<rect x="6.5" y="2.5" width="52" height="52" rx="26" stroke="white" stroke-width="5" shape-rendering="crispEdges"/>
<path d="M35.5 35.5V34.5H33.5C32.95 34.5 32.4793 34.3043 32.088 33.913C31.6967 33.5217 31.5007 33.0507 31.5 32.5V24.5H29.5V25.5C29.5 26.05 29.3043 26.521 28.913 26.913C28.5217 27.305 28.0507 27.5007 27.5 27.5H24.5C23.95 27.5 23.4793 27.3043 23.088 26.913C22.6967 26.5217 22.5007 26.0507 22.5 25.5V21.5C22.5 20.95 22.696 20.4793 23.088 20.088C23.48 19.6967 23.9507 19.5007 24.5 19.5H27.5C28.05 19.5 28.521 19.696 28.913 20.088C29.305 20.48 29.5007 20.9507 29.5 21.5V22.5H35.5V21.5C35.5 20.95 35.696 20.4793 36.088 20.088C36.48 19.6967 36.9507 19.5007 37.5 19.5H40.5C41.05 19.5 41.521 19.696 41.913 20.088C42.305 20.48 42.5007 20.9507 42.5 21.5V25.5C42.5 26.05 42.3043 26.521 41.913 26.913C41.5217 27.305 41.0507 27.5007 40.5 27.5H37.5C36.95 27.5 36.4793 27.3043 36.088 26.913C35.6967 26.5217 35.5007 26.0507 35.5 25.5V24.5H33.5V32.5H35.5V31.5C35.5 30.95 35.696 30.4793 36.088 30.088C36.48 29.6967 36.9507 29.5007 37.5 29.5H40.5C41.05 29.5 41.521 29.696 41.913 30.088C42.305 30.48 42.5007 30.9507 42.5 31.5V35.5C42.5 36.05 42.3043 36.521 41.913 36.913C41.5217 37.305 41.0507 37.5007 40.5 37.5H37.5C36.95 37.5 36.4793 37.3043 36.088 36.913C35.6967 36.5217 35.5007 36.0507 35.5 35.5ZM37.5 25.5H40.5V21.5H37.5V25.5ZM37.5 35.5H40.5V31.5H37.5V35.5ZM24.5 25.5H27.5V21.5H24.5V25.5Z" fill="white"/>
</g>
<defs>
<filter id="filter0_d_4_552" x="0" y="0" width="65" height="65" filterUnits="userSpaceOnUse" color-interpolation-filters="sRGB">
<feFlood flood-opacity="0" result="BackgroundImageFix"/>
<feColorMatrix in="SourceAlpha" type="matrix" values="0 0 0 0 0 0 0 0 0 0 0 0 0 0 0 0 0 0 127 0" result="hardAlpha"/>
<feOffset dy="4"/>
<feGaussianBlur stdDeviation="2"/>
<feComposite in2="hardAlpha" operator="out"/>
<feColorMatrix type="matrix" values="0 0 0 0 0 0 0 0 0 0 0 0 0 0 0 0 0 0 0.25 0"/>
<feBlend mode="normal" in2="BackgroundImageFix" result="effect1_dropShadow_4_552"/>
<feBlend mode="normal" in="SourceGraphic" in2="effect1_dropShadow_4_552" result="shape"/>
</filter>
</defs>
</svg>
