<svg width="65" height="65" viewBox="0 0 65 65" fill="none" xmlns="http://www.w3.org/2000/svg">
<g filter="url(#filter0_d_4_515)">
<rect x="4" width="57" height="57" rx="28.5" fill="#909DAD" shape-rendering="crispEdges"/>
<rect x="6.5" y="2.5" width="52" height="52" rx="26" stroke="white" stroke-width="5" shape-rendering="crispEdges"/>
<path d="M24.1001 23.1001C24.1001 22.3044 24.4162 21.5414 24.9788 20.9788C25.5414 20.4162 26.3044 20.1001 27.1001 20.1001H37.9001C38.6957 20.1001 39.4588 20.4162 40.0214 20.9788C40.584 21.5414 40.9001 22.3044 40.9001 23.1001V33.9001C40.9001 34.6957 40.584 35.4588 40.0214 36.0214C39.4588 36.584 38.6957 36.9001 37.9001 36.9001H27.1001C26.3044 36.9001 25.5414 36.584 24.9788 36.0214C24.4162 35.4588 24.1001 34.6957 24.1001 33.9001V23.1001ZM27.1001 21.3001C26.6227 21.3001 26.1649 21.4897 25.8273 21.8273C25.4897 22.1649 25.3001 22.6227 25.3001 23.1001V23.7001H39.7001V23.1001C39.7001 22.6227 39.5105 22.1649 39.1729 21.8273C38.8353 21.4897 38.3775 21.3001 37.9001 21.3001H27.1001ZM39.7001 24.9001H25.3001V33.9001C25.3001 34.3775 25.4897 34.8353 25.8273 35.1729C26.1649 35.5105 26.6227 35.7001 27.1001 35.7001H37.9001C38.3775 35.7001 38.8353 35.5105 39.1729 35.1729C39.5105 34.8353 39.7001 34.3775 39.7001 33.9001V24.9001ZM26.5001 27.3001C26.5001 26.9818 26.6265 26.6766 26.8516 26.4516C27.0766 26.2265 27.3818 26.1001 27.7001 26.1001H30.1001C30.4184 26.1001 30.7236 26.2265 30.9486 26.4516C31.1737 26.6766 31.3001 26.9818 31.3001 27.3001V33.3001C31.3001 33.6184 31.1737 33.9236 30.9486 34.1486C30.7236 34.3737 30.4184 34.5001 30.1001 34.5001H27.7001C27.3818 34.5001 27.0766 34.3737 26.8516 34.1486C26.6265 33.9236 26.5001 33.6184 26.5001 33.3001V27.3001ZM30.1001 27.3001H27.7001V33.3001H30.1001V27.3001ZM32.5001 29.1001C32.5001 28.941 32.5633 28.7884 32.6758 28.6758C32.7884 28.5633 32.941 28.5001 33.1001 28.5001H36.7001C36.8592 28.5001 37.0118 28.5633 37.1244 28.6758C37.2369 28.7884 37.3001 28.941 37.3001 29.1001C37.3001 29.2592 37.2369 29.4118 37.1244 29.5244C37.0118 29.6369 36.8592 29.7001 36.7001 29.7001H33.1001C32.941 29.7001 32.7884 29.6369 32.6758 29.5244C32.5633 29.4118 32.5001 29.2592 32.5001 29.1001ZM33.1001 26.1001C32.941 26.1001 32.7884 26.1633 32.6758 26.2758C32.5633 26.3884 32.5001 26.541 32.5001 26.7001C32.5001 26.8592 32.5633 27.0118 32.6758 27.1244C32.7884 27.2369 32.941 27.3001 33.1001 27.3001H37.9001C38.0592 27.3001 38.2118 27.2369 38.3244 27.1244C38.4369 27.0118 38.5001 26.8592 38.5001 26.7001C38.5001 26.541 38.4369 26.3884 38.3244 26.2758C38.2118 26.1633 38.0592 26.1001 37.9001 26.1001H33.1001Z" fill="white"/>
</g>
<defs>
<filter id="filter0_d_4_515" x="0" y="0" width="65" height="65" filterUnits="userSpaceOnUse" color-interpolation-filters="sRGB">
<feFlood flood-opacity="0" result="BackgroundImageFix"/>
<feColorMatrix in="SourceAlpha" type="matrix" values="0 0 0 0 0 0 0 0 0 0 0 0 0 0 0 0 0 0 127 0" result="hardAlpha"/>
<feOffset dy="4"/>
<feGaussianBlur stdDeviation="2"/>
<feComposite in2="hardAlpha" operator="out"/>
<feColorMatrix type="matrix" values="0 0 0 0 0 0 0 0 0 0 0 0 0 0 0 0 0 0 0.25 0"/>
<feBlend mode="normal" in2="BackgroundImageFix" result="effect1_dropShadow_4_515"/>
<feBlend mode="normal" in="SourceGraphic" in2="effect1_dropShadow_4_515" result="shape"/>
</filter>
</defs>
</svg>
