<svg width="65" height="65" viewBox="0 0 65 65" fill="none" xmlns="http://www.w3.org/2000/svg">
<g filter="url(#filter0_d_4_517)">
<rect x="4" width="57" height="57" rx="28.5" fill="#909DAD" shape-rendering="crispEdges"/>
<rect x="6.5" y="2.5" width="52" height="52" rx="26" stroke="white" stroke-width="5" shape-rendering="crispEdges"/>
<path d="M25.116 35.5C24.6553 35.5 24.271 35.346 23.963 35.038C23.655 34.73 23.5007 34.3453 23.5 33.884V23.116C23.5 22.6553 23.6543 22.271 23.963 21.963C24.2717 21.655 24.6557 21.5007 25.115 21.5H29.425C29.6403 21.5 29.8497 21.5433 30.053 21.63C30.2563 21.718 30.4303 21.8343 30.575 21.979L32.096 23.5H39.885C40.345 23.5 40.7293 23.6543 41.038 23.963C41.3467 24.2717 41.5007 24.656 41.5 25.116V33.885C41.5 34.345 41.346 34.7293 41.038 35.038C40.73 35.3467 40.3457 35.5007 39.885 35.5H25.116ZM25.116 34.5H39.885C40.0643 34.5 40.2117 34.4423 40.327 34.327C40.4423 34.2117 40.5 34.0643 40.5 33.885V25.115C40.5 24.9357 40.4423 24.7883 40.327 24.673C40.2117 24.5577 40.0643 24.5 39.885 24.5H31.695L29.866 22.673C29.802 22.609 29.7347 22.5643 29.664 22.539C29.5947 22.513 29.522 22.5 29.446 22.5H25.116C24.9367 22.5 24.7893 22.5577 24.674 22.673C24.5587 22.7883 24.5007 22.936 24.5 23.116V33.885C24.5 34.0643 24.5577 34.2117 24.673 34.327C24.7883 34.4423 24.936 34.5 25.116 34.5ZM32.5 32.577C33.4467 32.577 34.2473 32.2493 34.902 31.594C35.5567 30.9387 35.8843 30.138 35.885 29.192C35.8857 28.246 35.558 27.4453 34.902 26.79C34.246 26.1347 33.4453 25.8073 32.5 25.808C31.5547 25.8087 30.754 26.136 30.098 26.79C29.442 27.444 29.1143 28.2447 29.115 29.192C29.1157 30.1393 29.4433 30.94 30.098 31.594C30.7527 32.248 31.5533 32.5757 32.5 32.577ZM31.08 27.147C31.2893 26.999 31.5113 26.8863 31.746 26.809C31.9807 26.7317 32.232 26.6927 32.5 26.692C33.2 26.692 33.7917 26.9337 34.275 27.417C34.7583 27.9003 35 28.492 35 29.192C35 29.46 34.9613 29.7113 34.884 29.946C34.806 30.1807 34.6933 30.4023 34.546 30.611L31.08 27.147ZM32.5 31.691C31.8 31.691 31.2083 31.4493 30.725 30.966C30.2417 30.4827 30 29.8913 30 29.192C30 28.9247 30.0387 28.6737 30.116 28.439C30.194 28.2043 30.3067 27.9823 30.454 27.773L33.919 31.239C33.7103 31.3857 33.4887 31.498 33.254 31.576C33.0193 31.6533 32.768 31.692 32.5 31.692" fill="white"/>
</g>
<defs>
<filter id="filter0_d_4_517" x="0" y="0" width="65" height="65" filterUnits="userSpaceOnUse" color-interpolation-filters="sRGB">
<feFlood flood-opacity="0" result="BackgroundImageFix"/>
<feColorMatrix in="SourceAlpha" type="matrix" values="0 0 0 0 0 0 0 0 0 0 0 0 0 0 0 0 0 0 127 0" result="hardAlpha"/>
<feOffset dy="4"/>
<feGaussianBlur stdDeviation="2"/>
<feComposite in2="hardAlpha" operator="out"/>
<feColorMatrix type="matrix" values="0 0 0 0 0 0 0 0 0 0 0 0 0 0 0 0 0 0 0.25 0"/>
<feBlend mode="normal" in2="BackgroundImageFix" result="effect1_dropShadow_4_517"/>
<feBlend mode="normal" in="SourceGraphic" in2="effect1_dropShadow_4_517" result="shape"/>
</filter>
</defs>
</svg>
