<svg width="65" height="65" viewBox="0 0 65 65" fill="none" xmlns="http://www.w3.org/2000/svg">
<g filter="url(#filter0_d_4_548)">
<rect x="4" width="57" height="57" rx="28.5" fill="#E14941" shape-rendering="crispEdges"/>
<rect x="6.5" y="2.5" width="52" height="52" rx="26" stroke="white" stroke-width="5" shape-rendering="crispEdges"/>
<path d="M36.625 22.6875C36.625 22.5844 36.5406 22.5 36.4375 22.5H27.4375C27.3344 22.5 27.25 22.5844 27.25 22.6875V23.8125C27.25 23.9156 27.3344 24 27.4375 24H36.4375C36.5406 24 36.625 23.9156 36.625 23.8125V22.6875ZM36.4375 25.875H27.4375C27.3344 25.875 27.25 25.9594 27.25 26.0625V27.1875C27.25 27.2906 27.3344 27.375 27.4375 27.375H36.4375C36.5406 27.375 36.625 27.2906 36.625 27.1875V26.0625C36.625 25.9594 36.5406 25.875 36.4375 25.875ZM31.75 29.25H27.4375C27.3344 29.25 27.25 29.3344 27.25 29.4375V30.5625C27.25 30.6656 27.3344 30.75 27.4375 30.75H31.75C31.8531 30.75 31.9375 30.6656 31.9375 30.5625V29.4375C31.9375 29.3344 31.8531 29.25 31.75 29.25ZM30.625 36.4688H25.375V19.9688H38.5V28.0312C38.5 28.1344 38.5844 28.2188 38.6875 28.2188H40C40.1031 28.2188 40.1875 28.1344 40.1875 28.0312V19.0312C40.1875 18.6164 39.8523 18.2812 39.4375 18.2812H24.4375C24.0227 18.2812 23.6875 18.6164 23.6875 19.0312V37.4062C23.6875 37.8211 24.0227 38.1562 24.4375 38.1562H30.625C30.7281 38.1562 30.8125 38.0719 30.8125 37.9688V36.6562C30.8125 36.5531 30.7281 36.4688 30.625 36.4688ZM38.9875 34.725C39.6672 34.1086 40.0938 33.218 40.0938 32.2266C40.0938 30.3633 38.582 28.8516 36.7188 28.8516C34.8555 28.8516 33.3438 30.3633 33.3438 32.2266C33.3438 33.218 33.7703 34.1086 34.45 34.725C33.1141 35.4867 32.1953 36.8977 32.125 38.5242C32.1203 38.6297 32.207 38.7188 32.3125 38.7188H33.4398C33.5383 38.7188 33.6203 38.6414 33.6273 38.5406C33.7188 36.9188 35.0711 35.625 36.7188 35.625C38.3664 35.625 39.7188 36.9188 39.8102 38.5406C39.8148 38.6391 39.8969 38.7188 39.9977 38.7188H41.125C41.2328 38.7188 41.3172 38.6297 41.3125 38.5242C41.2445 36.8953 40.3234 35.4867 38.9875 34.725ZM36.7188 30.3516C37.7547 30.3516 38.5938 31.1906 38.5938 32.2266C38.5938 33.2625 37.7547 34.1016 36.7188 34.1016C35.6828 34.1016 34.8438 33.2625 34.8438 32.2266C34.8438 31.1906 35.6828 30.3516 36.7188 30.3516Z" fill="white"/>
</g>
<defs>
<filter id="filter0_d_4_548" x="0" y="0" width="65" height="65" filterUnits="userSpaceOnUse" color-interpolation-filters="sRGB">
<feFlood flood-opacity="0" result="BackgroundImageFix"/>
<feColorMatrix in="SourceAlpha" type="matrix" values="0 0 0 0 0 0 0 0 0 0 0 0 0 0 0 0 0 0 127 0" result="hardAlpha"/>
<feOffset dy="4"/>
<feGaussianBlur stdDeviation="2"/>
<feComposite in2="hardAlpha" operator="out"/>
<feColorMatrix type="matrix" values="0 0 0 0 0 0 0 0 0 0 0 0 0 0 0 0 0 0 0.25 0"/>
<feBlend mode="normal" in2="BackgroundImageFix" result="effect1_dropShadow_4_548"/>
<feBlend mode="normal" in="SourceGraphic" in2="effect1_dropShadow_4_548" result="shape"/>
</filter>
</defs>
</svg>
