<svg width="65" height="65" viewBox="0 0 65 65" fill="none" xmlns="http://www.w3.org/2000/svg">
<g filter="url(#filter0_d_4_516)">
<rect x="4" width="57" height="57" rx="28.5" fill="#909DAD" shape-rendering="crispEdges"/>
<rect x="6.5" y="2.5" width="52" height="52" rx="26" stroke="white" stroke-width="5" shape-rendering="crispEdges"/>
<path d="M34.5 28.5H40.5M34.5 32.5H40.5M34.5 36.5H40.5M24.5 21.5C24.5 21.2348 24.6054 20.9804 24.7929 20.7929C24.9804 20.6054 25.2348 20.5 25.5 20.5H39.5C39.7652 20.5 40.0196 20.6054 40.2071 20.7929C40.3946 20.9804 40.5 21.2348 40.5 21.5V23.5C40.5 23.7652 40.3946 24.0196 40.2071 24.2071C40.0196 24.3946 39.7652 24.5 39.5 24.5H25.5C25.2348 24.5 24.9804 24.3946 24.7929 24.2071C24.6054 24.0196 24.5 23.7652 24.5 23.5V21.5ZM24.5 29.5C24.5 29.2348 24.6054 28.9804 24.7929 28.7929C24.9804 28.6054 25.2348 28.5 25.5 28.5H29.5C29.7652 28.5 30.0196 28.6054 30.2071 28.7929C30.3946 28.9804 30.5 29.2348 30.5 29.5V35.5C30.5 35.7652 30.3946 36.0196 30.2071 36.2071C30.0196 36.3946 29.7652 36.5 29.5 36.5H25.5C25.2348 36.5 24.9804 36.3946 24.7929 36.2071C24.6054 36.0196 24.5 35.7652 24.5 35.5V29.5Z" stroke="white" stroke-width="2" stroke-linecap="round" stroke-linejoin="round"/>
</g>
<defs>
<filter id="filter0_d_4_516" x="0" y="0" width="65" height="65" filterUnits="userSpaceOnUse" color-interpolation-filters="sRGB">
<feFlood flood-opacity="0" result="BackgroundImageFix"/>
<feColorMatrix in="SourceAlpha" type="matrix" values="0 0 0 0 0 0 0 0 0 0 0 0 0 0 0 0 0 0 127 0" result="hardAlpha"/>
<feOffset dy="4"/>
<feGaussianBlur stdDeviation="2"/>
<feComposite in2="hardAlpha" operator="out"/>
<feColorMatrix type="matrix" values="0 0 0 0 0 0 0 0 0 0 0 0 0 0 0 0 0 0 0.25 0"/>
<feBlend mode="normal" in2="BackgroundImageFix" result="effect1_dropShadow_4_516"/>
<feBlend mode="normal" in="SourceGraphic" in2="effect1_dropShadow_4_516" result="shape"/>
</filter>
</defs>
</svg>
