<svg width="65" height="65" viewBox="0 0 65 65" fill="none" xmlns="http://www.w3.org/2000/svg">
<g filter="url(#filter0_d_4_519)">
<rect x="4" width="57" height="57" rx="28.5" fill="#909DAD" shape-rendering="crispEdges"/>
<rect x="6.5" y="2.5" width="52" height="52" rx="26" stroke="white" stroke-width="5" shape-rendering="crispEdges"/>
<path d="M28.5 32.5V27.5M32.5 32.5V24.5M36.5 32.5V30.5M32.5 20.5H26.5C25.9696 20.5 25.4609 20.7107 25.0858 21.0858C24.7107 21.4609 24.5 21.9696 24.5 22.5V34.5C24.5 35.0304 24.7107 35.5391 25.0858 35.9142C25.4609 36.2893 25.9696 36.5 26.5 36.5H38.5C39.0304 36.5 39.5391 36.2893 39.9142 35.9142C40.2893 35.5391 40.5 35.0304 40.5 34.5V28.5" stroke="white" stroke-width="2" stroke-linecap="round" stroke-linejoin="round"/>
<path d="M41.4749 24.4749C42.1313 23.8185 42.5001 22.9282 42.5001 21.9999C42.5001 21.0716 42.1313 20.1813 41.4749 19.5249C40.8185 18.8685 39.9282 18.4998 38.9999 18.4998C38.0716 18.4998 37.1813 18.8685 36.5249 19.5249M41.4749 24.4749C41.1499 24.8 40.7641 25.0578 40.3394 25.2337C39.9147 25.4096 39.4596 25.5001 38.9999 25.5001C38.0716 25.5001 37.1813 25.1313 36.5249 24.4749C35.8685 23.8185 35.4998 22.9282 35.4998 21.9999C35.4998 21.0716 35.8685 20.1813 36.5249 19.5249M41.4749 24.4749L38.9999 21.9999L36.5249 19.5249" stroke="white" stroke-width="2" stroke-linecap="round" stroke-linejoin="round"/>
</g>
<defs>
<filter id="filter0_d_4_519" x="0" y="0" width="65" height="65" filterUnits="userSpaceOnUse" color-interpolation-filters="sRGB">
<feFlood flood-opacity="0" result="BackgroundImageFix"/>
<feColorMatrix in="SourceAlpha" type="matrix" values="0 0 0 0 0 0 0 0 0 0 0 0 0 0 0 0 0 0 127 0" result="hardAlpha"/>
<feOffset dy="4"/>
<feGaussianBlur stdDeviation="2"/>
<feComposite in2="hardAlpha" operator="out"/>
<feColorMatrix type="matrix" values="0 0 0 0 0 0 0 0 0 0 0 0 0 0 0 0 0 0 0.25 0"/>
<feBlend mode="normal" in2="BackgroundImageFix" result="effect1_dropShadow_4_519"/>
<feBlend mode="normal" in="SourceGraphic" in2="effect1_dropShadow_4_519" result="shape"/>
</filter>
</defs>
</svg>
